<svg xmlns="http://www.w3.org/2000/svg" viewBox="0 0 800 420">
 <defs><linearGradient id="g" x1="0" y1="0" x2="1" y2="1"><stop stop-color="#6d28d9"/><stop offset=".52" stop-color="#9333ea"/><stop offset="1" stop-color="#db2777"/></linearGradient></defs>
 <rect width="800" height="420" rx="36" fill="url(#g)"/><circle cx="690" cy="70" r="120" fill="#fff" opacity=".11"/>
 <g transform="translate(500 72)"><rect width="225" height="282" rx="30" fill="#fff"/><circle cx="112" cy="82" r="45" fill="#ddd6fe"/><circle cx="112" cy="70" r="20" fill="#7c3aed"/><path d="M73 121c10-29 68-29 78 0" fill="#7c3aed"/><rect x="35" y="150" width="155" height="105" rx="16" fill="#f5f3ff"/><g fill="#111827"><rect x="57" y="171" width="13" height="13"/><rect x="77" y="171" width="13" height="13"/><rect x="117" y="171" width="13" height="13"/><rect x="137" y="171" width="13" height="13"/><rect x="57" y="191" width="13" height="13"/><rect x="97" y="191" width="13" height="13"/><rect x="137" y="191" width="13" height="13"/><rect x="77" y="211" width="13" height="13"/><rect x="117" y="211" width="13" height="13"/><rect x="157" y="211" width="13" height="13"/></g></g>
</svg>
