<svg xmlns="http://www.w3.org/2000/svg" viewBox="0 0 800 420">
 <defs><linearGradient id="g" x1="0" y1="0" x2="1" y2="1"><stop stop-color="#1d4ed8"/><stop offset=".55" stop-color="#2563eb"/><stop offset="1" stop-color="#8b5cf6"/></linearGradient></defs>
 <rect width="800" height="420" rx="36" fill="url(#g)"/><circle cx="690" cy="70" r="120" fill="#fff" opacity=".1"/><circle cx="610" cy="370" r="150" fill="#fff" opacity=".08"/>
 <g transform="translate(500 92)"><rect x="0" y="72" width="220" height="150" rx="26" fill="#172554"/><rect x="47" y="0" width="128" height="145" rx="14" fill="#fff" transform="rotate(7 111 72)"/><path d="M72 47h80M72 68h62M72 89h74" stroke="#93c5fd" stroke-width="10" stroke-linecap="round"/><rect x="49" y="171" width="125" height="95" rx="10" fill="#fff" transform="rotate(7 111 218)"/><path d="M76 201h74M76 220h52" stroke="#1e3a8a" stroke-width="9" stroke-linecap="round"/></g>
 <g transform="translate(430 92) rotate(-13)"><rect width="72" height="94" rx="12" fill="#fff"/><path d="M20 28h32M20 45h24M20 62h32" stroke="#111827" stroke-width="7" stroke-linecap="round"/></g>
</svg>
